<svg id="Capa_1" enable-background="new 0 0 512 512" height="512" viewBox="0 0 512 512" width="512" xmlns="http://www.w3.org/2000/svg"><g><g><path clip-rule="evenodd" d="m126.583 448.661c0-24.179-19.612-43.803-43.776-43.803-17.569 0-32.686 10.338-39.69 25.26-1.342-.146-2.714-.234-4.086-.234-15.818 0-29.33 9.783-34.875 23.624-1.722 4.293-2.656 8.994-2.656 13.929s.934 9.637 2.656 13.929c5.545 13.842 19.057 23.624 34.875 23.624h81.307c13.804 0 25.011-11.214 25.011-25.026 0-11.856-8.259-21.814-19.32-24.384.35-2.247.554-4.554.554-6.919z" fill="#eceaec" fill-rule="evenodd"/></g><g><path clip-rule="evenodd" d="m468.854 224.038c-6.975-14.922-22.122-25.26-39.661-25.26-.555 0-1.08 0-1.605.029-4.115 39.189-18.269 70.932-38.26 99.988.759.088 1.547.117 2.335.117h81.307c20.721 0 37.531-16.82 37.531-37.554s-16.81-37.554-37.531-37.554c-1.402.001-2.773.088-4.116.234z" fill="#eceaec" fill-rule="evenodd"/></g><g><path d="m214.661 444.65c-3.472 0-6.627-2.36-7.493-5.885l-16.518-72.433c-1.017-4.144 1.516-8.328 5.657-9.346 4.141-1.016 8.324 1.516 9.341 5.66l16.518 72.433c1.017 4.144-1.516 8.328-5.657 9.346-.618.151-1.238.225-1.848.225zm90.703 0c-.61 0-1.23-.073-1.848-.225-4.141-1.018-6.674-5.202-5.657-9.346l16.518-72.433c1.017-4.145 5.204-6.679 9.341-5.66 4.141 1.018 6.674 5.202 5.657 9.346l-16.518 72.433c-.865 3.525-4.021 5.885-7.493 5.885zm-45.351-.002c-4.265 0-7.722-3.459-7.722-7.726v-72.433c0-4.268 3.457-7.726 7.722-7.726s7.722 3.459 7.722 7.726v72.433c0 4.267-3.457 7.726-7.722 7.726z" fill="#eceaec"/></g><g><path clip-rule="evenodd" d="m260.013 0c-54.37 0-102.728 27.596-133.634 69.121 13.775 5.578 23.464 19.069 23.464 34.838 0 20.733-16.781 37.525-37.502 37.525h-18.006c-2.072 10.776-3.181 21.814-3.181 33.057 0 81.97 40.595 132.402 91.551 186.105 8.843 9.286 11.236 8.994 18.94 8.994h32.219c-16.606-.146 22.705-332.729 26.149-369.64z" fill="#ff8086" fill-rule="evenodd"/></g><g><path clip-rule="evenodd" d="m428.843 174.541c0-93.33-75.587-174.541-168.83-174.541 3.415 36.911 42.755 369.494 26.12 369.64h32.219c7.734 0 10.127.292 18.94-8.994 19.407-20.441 37.297-40.416 52.035-61.85 19.991-29.056 34.145-60.799 38.26-99.988.847-7.797 1.256-15.857 1.256-24.267z" fill="#ff8086" fill-rule="evenodd"/></g><g><path clip-rule="evenodd" d="m313.595 436.921h-53.582-53.582v52.33c0 12.498 10.214 22.748 22.705 22.748h61.724c12.52 0 22.734-10.25 22.734-22.748v-52.33z" fill="#be8282" fill-rule="evenodd"/></g><g><path clip-rule="evenodd" d="m286.862 12.528c165.27 66.785 116.474 244.509 17.335 348.965-4.611 4.877-7.471 7.125-10.244 8.147h24.398c7.734 0 10.127.292 18.94-8.994 19.407-20.441 37.297-40.416 52.035-61.85 19.991-29.056 34.145-60.799 38.26-99.988.846-7.797 1.255-15.857 1.255-24.267.002-93.33-75.585-174.541-168.828-174.541 9.485 0 18.532 4.468 26.849 12.528z" fill="#f76672" fill-rule="evenodd"/></g><g><path clip-rule="evenodd" d="m290.86 512c12.52 0 22.734-10.25 22.734-22.748v-52.33h-22.53v52.33c0 12.498-10.214 22.748-22.705 22.748z" fill="#af7373" fill-rule="evenodd"/></g><g><path clip-rule="evenodd" d="m333.119 174.541c0-93.33-32.715-174.541-73.106-174.541s-73.135 81.211-73.135 174.541c0 81.97 17.598 132.402 39.661 186.105 3.473 8.439 4.64 8.965 7.325 8.994h.876 25.273 25.273.846c2.714-.029 3.882-.555 7.354-8.994 22.064-53.703 39.633-104.135 39.633-186.105z" fill="#ffe07d" fill-rule="evenodd"/></g><g><path clip-rule="evenodd" d="m293.487 360.646c22.063-53.703 39.632-104.135 39.632-186.105 0-93.33-32.715-174.541-73.106-174.541-6.333 0-12.462 1.986-18.298 5.694 5.749 2.219 11.294 6.074 16.518 11.36 1.372 1.402 2.714 2.862 4.027 4.439 24.398 28.998 41.208 89.68 41.208 156.552 0 47.366-5.866 84.219-15.088 117.246-6.712 24.121-15.234 46.198-24.544 68.858-.992 2.424-1.809 4.205-2.51 5.49h23.96.846c2.715-.028 3.882-.554 7.355-8.993z" fill="#ffc269" fill-rule="evenodd"/></g><g><path clip-rule="evenodd" d="m186.877 174.541c0-78.729 23.318-148.843 54.837-168.846 5.837-3.709 11.966-5.695 18.299-5.695-90.354 0-104.012 102.47-104.012 174.541 0 81.97 17.569 132.402 39.632 186.105 3.473 8.439 4.669 8.965 7.354 8.994h30.877c-2.685-.029-3.852-.555-7.325-8.994-22.064-53.703-39.662-104.135-39.662-186.105z" fill="#f76672" fill-rule="evenodd"/></g><g><path clip-rule="evenodd" d="m108.226 66.61c-6.975-14.893-22.122-25.231-39.69-25.231-24.164 0-43.776 19.595-43.776 43.803 0 2.336.204 4.643.554 6.892-11.061 2.599-19.32 12.528-19.32 24.384 0 13.842 11.207 25.026 25.04 25.026h63.3 18.007c20.721 0 37.502-16.791 37.502-37.525 0-15.769-9.689-29.26-23.464-34.838-4.319-1.752-9.076-2.716-14.038-2.716-1.401.001-2.772.059-4.115.205z" fill="#eceaec" fill-rule="evenodd"/></g><g><path clip-rule="evenodd" d="m94.335 141.484h18.007c20.721 0 37.502-16.791 37.502-37.525 0-15.769-9.689-29.26-23.464-34.838-4.319-1.752-9.076-2.716-14.038-2.716-1.401 0-2.772.058-4.115.204-6.946-14.805-21.917-25.114-39.311-25.231 13.541 12.704 22.354 33.496 22.354 57.004 0 16.266-4.232 31.217-11.294 43.102z" fill="#dad8db" fill-rule="evenodd"/></g><g><path clip-rule="evenodd" d="m74.84 504.991h45.498c13.804 0 25.011-11.214 25.011-25.026 0-11.856-8.259-21.814-19.32-24.384.35-2.249.555-4.556.555-6.921 0-24.179-19.612-43.803-43.776-43.803-.905 0-1.809.029-2.714.088 4.64 12.82 7.296 27.888 7.296 43.978-.001 21.493-4.729 41.117-12.55 56.068z" fill="#dad8db" fill-rule="evenodd"/></g></g></svg>