<svg id="Capa_1" enable-background="new 0 0 512 512" height="512" viewBox="0 0 512 512" width="512" xmlns="http://www.w3.org/2000/svg"><g><g><g><g><g><g><g><g><circle cx="256" cy="256" fill="#e06a24" r="256"/></g></g></g></g></g></g></g><path d="m512 256c0-3.18-.058-6.346-.173-9.499l-109.572-109.572-310.09 196.734 65.717 65.717-15.397 15.734 95.948 96.292c5.804.394 11.662.594 17.567.594 141.385 0 256-114.615 256-256z" fill="#c53d0e"/><g><g><path d="m337.87 72.544h-195.386v342.57h259.771v-278.185z" fill="#fff"/></g><g><path d="m402.255 136.929-64.385-64.385h-81.87v342.57h146.255z" fill="#e9ecf4"/></g><g><path d="m337.869 136.929h64.386l-64.385-64.385z" fill="#cdd1e0"/></g></g><g><g><path d="m339.131 170.815v48.574h21.15v.186c-.178.933-.893 4.051-2.894 7.022-3.518 5.222-9.499 7.761-18.285 7.761v27.424c35.73 0 47.385-26.285 48.555-40.184v-50.782h-48.526z" fill="#717687"/></g><g><path d="m270.628 170.815v48.574h21.15v.186c-.178.933-.893 4.051-2.894 7.022-3.518 5.222-9.499 7.761-18.285 7.761v27.424c35.73 0 47.385-26.285 48.555-40.184v-50.782h-48.526z" fill="#717687"/></g></g><g><path d="m193.812 333.663-51.328-23.457-50.319 23.457v-133.838h101.647z" fill="#7982ed"/></g><g><path d="m142.484 199.825v110.401-.02l51.328 23.457v-133.838z" fill="#636ae5"/></g><g><path d="m217.657 192.076c0 41.238-33.934 74.669-75.173 74.669s-74.164-33.43-74.164-74.669 32.926-74.669 74.164-74.669 75.173 33.43 75.173 74.669z" fill="#f1cc30"/></g><g><path d="m142.484 117.407c-.298 0 .297.019 0 .022v149.292c.297.004-.298.023 0 .023 41.238 0 75.173-33.43 75.173-74.669s-33.935-74.668-75.173-74.668z" fill="#ecb931"/></g><g><path d="m186.354 192.076c0 23.95-19.92 43.366-43.87 43.366s-42.862-19.416-42.862-43.366 18.911-43.366 42.862-43.366 43.87 19.415 43.87 43.366z" fill="#e9a727"/></g><g><path d="m142.484 148.71c-.298 0 .297.017 0 .022v86.687c.297.006-.298.023 0 .023 23.95 0 43.87-19.416 43.87-43.366 0-23.951-19.92-43.366-43.87-43.366z" fill="#e69423"/></g></g></svg>