<svg id="Capa_1" enable-background="new 0 0 512 512" height="512" viewBox="0 0 512 512" width="512" xmlns="http://www.w3.org/2000/svg"><g><g><g><g><g><g><g><circle cx="256" cy="256" fill="#b1d3fd" r="256"/></g></g></g></g></g></g><path d="m512 256c0-13.251-1.007-26.267-2.948-38.975l-92.142-92.142-160.921 315.235 63.865 63.854c110.489-28.368 192.146-128.634 192.146-247.972z" fill="#80affa"/><g><path d="m452 232.502-196.011 207.616-195.989-207.616 35.09-107.619h321.82z" fill="#7982ed"/></g><g><path d="m452 232.502-196.011 207.616-195.989-207.616 35.09-107.619h321.82z" fill="#7982ed"/></g><g><path d="m255.989 440.118 196.011-207.616-35.09-107.619h-160.921z" fill="#636ae5"/></g><g><path d="m335.13 232.502-79.141 207.616-79.119-207.616 79.119-40.104z" fill="#636ae5"/></g><g><path d="m255.989 440.118 79.141-207.616-79.141-40.104z" fill="#4755cb"/></g><g><path d="m95.09 124.883 81.78 107.619h-116.87z" fill="#4755cb"/></g><g><path d="m176.87 232.502 79.119-107.619 79.141 107.619z" fill="#4755cb"/></g><g><path d="m255.989 232.502h79.141l-79.141-107.619z" fill="#36498b"/></g><g><path d="m335.13 232.502h116.87l-35.09-107.619z" fill="#36498b"/></g></g></svg>