<?xml version="1.0" encoding="iso-8859-1"?>
<!-- Generator: Adobe Illustrator 19.0.0, SVG Export Plug-In . SVG Version: 6.00 Build 0)  -->
<svg version="1.1" id="Capa_1" xmlns="http://www.w3.org/2000/svg" xmlns:xlink="http://www.w3.org/1999/xlink" x="0px" y="0px"
	 viewBox="0 0 511.999 511.999" style="enable-background:new 0 0 511.999 511.999;" xml:space="preserve">
<path style="fill:#7984EB;" d="M315.994,0H45.019C20.12,0,0.023,20.097,0.023,44.996V225.98c0,24.897,20.097,44.996,44.996,44.996
	h14.999v44.996c0,13.499,16.198,20.097,25.497,10.498l55.796-55.494h174.683c24.899,0,44.996-20.099,44.996-44.996V44.996
	C360.99,20.097,340.892,0,315.994,0z"/>
<path style="fill:#6B77E8;" d="M360.99,44.996V225.98c0,24.897-20.097,44.996-44.996,44.996h-29.997V0h29.997
	C340.892,0,360.99,20.097,360.99,44.996z"/>
<path style="fill:#CA80DC;" d="M466.981,180.984H196.005c-24.899,0-44.996,20.097-44.996,44.996v180.984
	c0,24.897,20.097,44.996,44.996,44.996h173.683l56.796,55.494c9.299,9.599,25.497,3.001,25.497-10.498v-44.996h14.999
	c24.899,0,44.996-20.099,44.996-44.996V225.98C511.977,201.081,491.878,180.984,466.981,180.984z"/>
<path style="fill:#B757D1;" d="M511.977,225.98v180.984c0,24.897-20.097,44.996-44.996,44.996h-14.999v44.996
	c0,13.499-16.198,20.097-25.497,10.498l-56.797-55.494h-83.691V180.984h180.984C491.878,180.984,511.977,201.081,511.977,225.98z"/>
<path style="fill:#FFDE33;" d="M285.997,360.968c-74.436,0-134.988-60.552-134.988-134.988S211.561,90.992,285.997,90.992
	s134.988,60.552,134.988,134.988S360.433,360.968,285.997,360.968z"/>
<path style="fill:#FFBC33;" d="M420.985,225.98c0-74.436-60.552-134.988-134.988-134.988v269.976
	C360.433,360.968,420.985,300.416,420.985,225.98z"/>
<path style="fill:#F6B73C;" d="M329.493,232.578l-29.997,59.995c-2.701,5.4-8.1,8.4-13.499,8.4c-2.1,0-4.501-0.601-6.598-1.5
	c-7.499-3.9-10.5-12.901-6.9-20.099l13.499-26.997l5.7-11.399H256c-11.099,0-18.298-11.699-13.499-21.599l29.997-59.995
	c2.701-5.4,8.1-8.398,13.499-8.398c2.401,0,4.501,0.599,6.598,1.5c7.499,3.9,10.5,12.899,6.9,20.097l-19.198,38.398h35.697
	C327.093,210.981,334.292,222.68,329.493,232.578z"/>
<g>
	<path style="fill:#F29737;" d="M299.496,172.583l-13.499,26.999v-48.596c2.401,0,4.501,0.599,6.598,1.5
		C300.095,156.386,303.095,165.384,299.496,172.583z"/>
	<path style="fill:#F29737;" d="M329.493,232.578l-29.997,59.995c-2.701,5.4-8.1,8.4-13.499,8.4v-48.596l5.7-11.399h-5.7v-29.997
		h29.997C327.093,210.981,334.292,222.68,329.493,232.578z"/>
</g>
<g>
</g>
<g>
</g>
<g>
</g>
<g>
</g>
<g>
</g>
<g>
</g>
<g>
</g>
<g>
</g>
<g>
</g>
<g>
</g>
<g>
</g>
<g>
</g>
<g>
</g>
<g>
</g>
<g>
</g>
</svg>
