<svg height="468pt" viewBox="-112 0 468 468" width="468pt" xmlns="http://www.w3.org/2000/svg"><path d="m122.300781 149c-17.507812 0-31.699219 14.191406-31.699219 31.699219 0 17.507812 14.191407 31.699219 31.699219 31.699219 17.507813 0 31.699219-14.191407 31.699219-31.699219-.003906-17.503907-14.195312-31.695313-31.699219-31.699219zm0-67.898438h37.597657c11.863281.003907 23.113281 5.28125 30.703124 14.398438l44.699219 53.601562c6.007813 7.175782 9.296875 16.238282 9.300781 25.597657v253.300781c.003907 22.09375-17.90625 40.007812-40 40h-164.601562c-22.09375.007812-40.0078125-17.90625-40-40v-253.300781c0-9.359375 3.292969-18.421875 9.300781-25.597657l44.699219-53.601562c7.601562-9.101562 18.839844-14.371094 30.699219-14.398438zm0 0" fill="#00efd1"/><g fill="#00acea"><path d="m122.300781 212.398438c15.570313.003906 28.835938-11.304688 31.296875-26.675782 2.464844-15.375-6.605468-30.261718-21.398437-35.121094 0-.402343.101562-.703124.101562-1.101562v-139.5c0-5.523438-4.476562-10-10-10-5.523437 0-10 4.476562-10 10v139.5c-.015625.371094.015625.738281.097657 1.101562-14.789063 4.859376-23.859376 19.746094-21.398438 35.121094 2.464844 15.371094 15.730469 26.679688 31.300781 26.675782zm0 0"/><path d="m171.898438 278.300781c-.015626-5.515625-4.480469-9.984375-10-10h-79.199219c-5.523438 0-10 4.476563-10 10 0 5.523438 4.476562 10 10 10h22.699219c9.386718-.019531 17.914062 5.457031 21.800781 14h-44.398438c-5.523437 0-10 4.476563-10 10 0 5.523438 4.476563 10 10 10h44.398438c-3.917969 8.511719-12.425781 13.976563-21.800781 14h-22.699219c-4.101563.003907-7.785157 2.503907-9.304688 6.3125-1.519531 3.808594-.566406 8.160157 2.40625 10.988281l56.597657 53.5c1.871093 1.746094 4.339843 2.714844 6.902343 2.699219 2.75-.019531 5.375-1.136719 7.300781-3.101562 1.816407-1.921875 2.796876-4.488281 2.722657-7.132813-.074219-2.644531-1.199219-5.152344-3.125-6.964844l-38.398438-36.300781c19.480469-1.128906 35.90625-14.914062 40.398438-33.902343h13.699219c5.523437 0 10-4.476563 10-10 0-5.519532-4.476563-10-10-10h-13.699219c-1.164063-4.980469-3.195313-9.71875-6-14h19.699219c5.523437-.097657 9.957031-4.578126 10-10.097657zm0 0"/></g></svg>