<?xml version="1.0" encoding="iso-8859-1"?>
<!-- Generator: Adobe Illustrator 19.0.0, SVG Export Plug-In . SVG Version: 6.00 Build 0)  -->
<svg version="1.1" id="Layer_1" xmlns="http://www.w3.org/2000/svg" xmlns:xlink="http://www.w3.org/1999/xlink" x="0px" y="0px"
	 viewBox="0 0 512 512" style="enable-background:new 0 0 512 512;" xml:space="preserve">
<path style="fill:#32BEA6;" d="M256,0C177.336,82.664,46.664,64,46.664,64v224C46.664,420,256,512,256,512s209.336-92,209.336-224
	V64C465.336,64,334.664,82.664,256,0z"/>
<path style="fill:#415E72;" d="M256,73.688c-56,58.872-149.072,45.6-149.072,45.6v159.52C106.928,372.8,256,438.312,256,438.312
	s149.08-65.52,149.08-159.52v-159.52C405.08,119.272,312,132.56,256,73.688z"/>
<polygon style="fill:#FFFFFF;" points="241.344,337.56 164.032,272.968 184.544,248.408 235.2,290.736 318.2,173.056 
	344.36,191.496 "/>
<g>
</g>
<g>
</g>
<g>
</g>
<g>
</g>
<g>
</g>
<g>
</g>
<g>
</g>
<g>
</g>
<g>
</g>
<g>
</g>
<g>
</g>
<g>
</g>
<g>
</g>
<g>
</g>
<g>
</g>
</svg>
